<?xml version="1.0" encoding="UTF-8" standalone="no"?>
<svg
   xmlns:dc="http://purl.org/dc/elements/1.1/"
   xmlns:cc="http://creativecommons.org/ns#"
   xmlns:rdf="http://www.w3.org/1999/02/22-rdf-syntax-ns#"
   xmlns:svg="http://www.w3.org/2000/svg"
   xmlns="http://www.w3.org/2000/svg"
   xmlns:sodipodi="http://sodipodi.sourceforge.net/DTD/sodipodi-0.dtd"
   xmlns:inkscape="http://www.inkscape.org/namespaces/inkscape"
   sodipodi:docname="OnDockStationCharging.svg"
   inkscape:version="1.0 (4035a4fb49, 2020-05-01)"
   id="svg8"
   version="1.1"
   viewBox="0 0 209.02083 79.375016"
   height="300"
   width="790">
  <defs
     id="defs2">
    <inkscape:path-effect
       effect="powerclip"
       id="path-effect1188"
       is_visible="true"
       lpeversion="1"
       inverse="true"
       flatten="false"
       hide_clip="false"
       message="Utilise la règle de remplissage « fill-rule: evenodd » de la boîte de dialogue &lt;b&gt;Fond et contour&lt;/b&gt; en l'absence de résultat de mise à plat après une conversion en chemin." />
    <clipPath
       id="clipPath1064"
       clipPathUnits="userSpaceOnUse">
      <rect
         y="59.059055"
         x="90.976997"
         height="67.527084"
         width="74.475204"
         id="rect1066"
         style="display:inline;fill:#ff0066;fill-opacity:1;stroke:#d93e3e;stroke-width:1;stroke-linecap:round;stroke-linejoin:round;stroke-opacity:1" />
    </clipPath>
    <clipPath
       id="clipPath1068"
       clipPathUnits="userSpaceOnUse">
      <rect
         y="59.059055"
         x="90.976997"
         height="67.527084"
         width="74.475204"
         id="rect1070"
         style="display:inline;fill:#ff0066;fill-opacity:1;stroke:#d93e3e;stroke-width:1;stroke-linecap:round;stroke-linejoin:round;stroke-opacity:1" />
    </clipPath>
    <clipPath
       id="clipPath1072"
       clipPathUnits="userSpaceOnUse">
      <rect
         y="59.059055"
         x="90.976997"
         height="67.527084"
         width="74.475204"
         id="rect1074"
         style="display:inline;fill:#ff0066;fill-opacity:1;stroke:#d93e3e;stroke-width:1;stroke-linecap:round;stroke-linejoin:round;stroke-opacity:1" />
    </clipPath>
    <clipPath
       id="clipPath1076"
       clipPathUnits="userSpaceOnUse">
      <rect
         y="59.059055"
         x="90.976997"
         height="67.527084"
         width="74.475204"
         id="rect1078"
         style="display:inline;fill:#ff0066;fill-opacity:1;stroke:#d93e3e;stroke-width:1;stroke-linecap:round;stroke-linejoin:round;stroke-opacity:1" />
    </clipPath>
    <clipPath
       clipPathUnits="userSpaceOnUse"
       id="clipPath1184">
      <path
         id="path1186"
         style="color:#000000;font-style:normal;font-variant:normal;font-weight:normal;font-stretch:normal;font-size:medium;line-height:normal;font-family:sans-serif;font-variant-ligatures:normal;font-variant-position:normal;font-variant-caps:normal;font-variant-numeric:normal;font-variant-alternates:normal;font-variant-east-asian:normal;font-feature-settings:normal;font-variation-settings:normal;text-indent:0;text-align:start;text-decoration:none;text-decoration-line:none;text-decoration-style:solid;text-decoration-color:#000000;letter-spacing:normal;word-spacing:normal;text-transform:none;writing-mode:lr-tb;direction:ltr;text-orientation:mixed;dominant-baseline:auto;baseline-shift:baseline;text-anchor:start;white-space:normal;shape-padding:0;shape-margin:0;inline-size:0;clip-rule:nonzero;display:none;overflow:visible;visibility:visible;isolation:auto;mix-blend-mode:normal;color-interpolation:sRGB;color-interpolation-filters:linearRGB;solid-color:#000000;solid-opacity:1;vector-effect:none;fill:#3e3e3e;fill-opacity:1;fill-rule:nonzero;stroke:none;stroke-width:1.05831;stroke-linecap:butt;stroke-linejoin:round;stroke-miterlimit:4;stroke-dasharray:none;stroke-dashoffset:0;stroke-opacity:1;color-rendering:auto;image-rendering:auto;shape-rendering:auto;text-rendering:auto;enable-background:accumulate;stop-color:#000000;stop-opacity:1"
         d="m 169.94346,39.91024 c -1.2347,10e-6 -0.88259,2.1e-5 -2.11729,4e-5 -0.29234,-4.5e-5 -0.52934,0.236833 -0.52929,0.529174 v 25.927733 c -5e-5,0.292341 0.23695,0.529341 0.52929,0.529296 h 14.81641 c 0.29234,5.3e-5 0.52935,-0.23695 0.5293,-0.529296 V 40.439454 c 5e-5,-0.292346 -0.23696,-0.529349 -0.5293,-0.529299 -1.2347,2.1e-5 -0.8824,3.2e-5 -2.11711,4.2e-5 l -8e-5,-0.529084 v -0.795047 c 5e-5,-0.291578 -0.23576,-0.528267 -0.52734,-0.529296 h -9.52539 c -0.29234,-5e-5 -0.52935,0.236953 -0.5293,0.529296 l 10e-5,0.795047 z"
         sodipodi:nodetypes="ccccccccccccccccc" />
      <path
         id="lpe_path-effect1188"
         style="color:#000000;font-style:normal;font-variant:normal;font-weight:normal;font-stretch:normal;font-size:medium;line-height:normal;font-family:sans-serif;font-variant-ligatures:normal;font-variant-position:normal;font-variant-caps:normal;font-variant-numeric:normal;font-variant-alternates:normal;font-variant-east-asian:normal;font-feature-settings:normal;font-variation-settings:normal;text-indent:0;text-align:start;text-decoration:none;text-decoration-line:none;text-decoration-style:solid;text-decoration-color:#000000;letter-spacing:normal;word-spacing:normal;text-transform:none;writing-mode:lr-tb;direction:ltr;text-orientation:mixed;dominant-baseline:auto;baseline-shift:baseline;text-anchor:start;white-space:normal;shape-padding:0;shape-margin:0;inline-size:0;clip-rule:nonzero;display:inline;overflow:visible;visibility:visible;isolation:auto;mix-blend-mode:normal;color-interpolation:sRGB;color-interpolation-filters:linearRGB;solid-color:#000000;solid-opacity:1;vector-effect:none;fill:#3e3e3e;fill-opacity:1;fill-rule:nonzero;stroke:none;stroke-width:1.05831;stroke-linecap:butt;stroke-linejoin:round;stroke-miterlimit:4;stroke-dasharray:none;stroke-dashoffset:0;stroke-opacity:1;color-rendering:auto;image-rendering:auto;shape-rendering:auto;text-rendering:auto;enable-background:accumulate;stop-color:#000000;stop-opacity:1"
         class="powerclip"
         d="m 159.65134,28.175489 h 31.16668 v 46.985609 h -31.16668 z m 10.29212,11.734751 c -1.2347,10e-6 -0.88259,2.1e-5 -2.11729,4e-5 -0.29234,-4.5e-5 -0.52934,0.236833 -0.52929,0.529174 v 25.927733 c -5e-5,0.292341 0.23695,0.529341 0.52929,0.529296 h 14.81641 c 0.29234,5.3e-5 0.52935,-0.23695 0.5293,-0.529296 V 40.439454 c 5e-5,-0.292346 -0.23696,-0.529349 -0.5293,-0.529299 -1.2347,2.1e-5 -0.8824,3.2e-5 -2.11711,4.2e-5 l -8e-5,-0.529084 v -0.795047 c 5e-5,-0.291578 -0.23576,-0.528267 -0.52734,-0.529296 h -9.52539 c -0.29234,-5e-5 -0.52935,0.236953 -0.5293,0.529296 l 10e-5,0.795047 z" />
    </clipPath>
  </defs>
  <sodipodi:namedview
     showguides="true"
     inkscape:lockguides="false"
     inkscape:window-maximized="1"
     inkscape:window-y="-8"
     inkscape:window-x="2728"
     inkscape:window-height="1017"
     inkscape:window-width="1920"
     showgrid="false"
     inkscape:document-rotation="0"
     inkscape:current-layer="g1478"
     inkscape:document-units="px"
     inkscape:cy="228.77547"
     inkscape:cx="332.94042"
     inkscape:zoom="1.4106739"
     inkscape:pageshadow="2"
     inkscape:pageopacity="0.0"
     borderopacity="1.0"
     bordercolor="#666666"
     pagecolor="#ffffff"
     id="base"
     units="px">
    <inkscape:grid
       type="xygrid"
       id="grid38" />
  </sodipodi:namedview>
  <metadata
     id="metadata5">
    <rdf:RDF>
      <cc:Work
         rdf:about="">
        <dc:format>image/svg+xml</dc:format>
        <dc:type
           rdf:resource="http://purl.org/dc/dcmitype/StillImage" />
        <dc:title />
      </cc:Work>
    </rdf:RDF>
  </metadata>
  <g
     inkscape:groupmode="layer"
     id="g1478"
     inkscape:label="OnDockStationCharging"
     style="display:inline">
    <g
       style="display:inline"
       inkscape:label="Dock"
       id="g931"
       inkscape:groupmode="layer">
      <path
         style="display:inline;fill:#006249;fill-opacity:1;stroke:#006249;stroke-opacity:1"
         id="path969"
         stroke-width="0.0654074"
         stroke="#000000"
         d="m 166.00697,62.474371 h 18.45542 v 6.284593 h -18.45542 z"
         fill="#000000">
        <animateTransform
           type="translate"
           attributeType="XML"
           attributeName="transform"
           begin="0s"
           dur="2s"
           from="0,0"
           to="0,-25"
           repeatCount="indefinite" />
      </path>
      <path
         fill="#000000"
         d="m 158.52013,43.90501 h 6.28057 v 6.415578 h -6.28057 z"
         stroke="#000000"
         stroke-width="0.0694264"
         id="path927"
         style="display:inline;fill:#3e3e3e;fill-opacity:1;stroke:#3e3e3e;stroke-opacity:1" />
      <path
         fill="#000000"
         d="m 164.68872,33.212865 h 21.09192 v 36.910857 h -21.09192 z"
         stroke="#000000"
         stroke-width="0.0747515"
         id="path929"
         style="display:inline;opacity:0.997;fill:#3e3e3e;fill-opacity:1;stroke:#3e3e3e;stroke-opacity:1"
         inkscape:original-d="m 164.68872,33.212865 h 21.09192 v 36.910857 h -21.09192 z"
         clip-path="url(#clipPath1184)"
         inkscape:path-effect="#path-effect1188"
         transform="matrix(0.99993464,0,0,1.0373207,0.01145376,-1.2388366)" />
    </g>
    <g
       inkscape:groupmode="layer"
       id="g965"
       inkscape:label="Battery"
       style="display:inline">
      <g
         id="g1094"
         style="opacity:0.997">
        <g
           id="g1104"
           style="opacity:1" />
        <g
           id="g1110"
           style="opacity:1" />
      </g>
    </g>
    <g
       inkscape:groupmode="layer"
       id="g943"
       inkscape:label="Mower"
       style="display:inline">
      <path
         sodipodi:nodetypes="ccccccccccsccccccccccccccccccccccccccccccccccccccccccsccccccsccccccccccccccccccccsccccccccccc"
         style="display:inline;fill:#006249;fill-opacity:1;stroke:#006249;stroke-opacity:1"
         id="path939"
         stroke-width="0.280227"
         stroke="#000000"
         d="m 9.8371392,26.296918 c -0.083766,-0.146593 0.7120278,-1.591589 1.7800668,-3.225064 1.780067,-2.701515 2.031371,-2.97376 2.994702,-3.162237 0.858622,-0.167536 1.6963,-0.837679 4.565351,-3.685789 5.026077,-5.005131 9.842731,-8.0417177 16.041555,-10.1359157 3.120355,-1.0680405 8.649035,-2.0313707 11.099246,-1.9476028 0.565437,0.020942 0.08377,0.1465938 -1.06804,0.2722457 -2.889993,0.3350709 -6.15694,1.0261561 -8.669977,1.8219511 -3.204121,1.026157 -8.565268,3.7904977 -11.224899,5.8218697 -4.293108,3.225064 -8.963168,8.628093 -11.53903,13.319097 -0.418841,0.774852 -0.62826,0.85862 -1.738184,0.85862 -0.691083,0 -1.444997,0.06282 -1.675359,0.167536 -0.230359,0.08377 -0.4816642,0.04189 -0.5863737,-0.104711 z M 88.893097,45.186581 C 88.62085,44.914335 88.432373,43.762526 88.285776,41.605502 87.133967,23.302216 74.191827,8.5800075 56.035137,4.9570459 l -2.513036,-0.5026068 1.675357,-0.020942 c 2.387385,-0.041885 10.743231,0.7120266 13.737935,1.2355759 7.706648,1.3402862 18.387053,3.3926006 22.554507,4.355931 6.785201,1.570648 7.853241,1.968545 19.89487,7.601937 11.01548,5.151726 15.03632,7.287808 17.61219,9.340122 2.72246,2.177965 3.2879,2.97376 4.87949,6.722374 l 1.17274,2.785282 0.021,4.481582 0.021,4.481584 -22.88959,0.06282 C 92.662757,45.56353 89.249216,45.521652 88.914142,45.165636 Z M 209.50467,82.287655 c 0.42156,-0.02229 0.40872,-1.006229 0.43438,-6.011362 l -0.0202,-5.612452 C 196.33435,70.291499 186.7872,70.3089 173.18425,70.191295 l -31.8737,0.188481 c -0.0837,-0.08377 0.2932,-0.753912 0.8377,-1.465938 2.03137,-2.638687 3.12035,-5.759044 3.39259,-9.717079 l 0.18848,-2.513036 3.07846,-0.146596 c 2.65965,-0.125652 3.2879,-0.251301 4.5863,-0.942385 1.86384,-0.963331 4.10463,-3.183182 4.35593,-4.272164 0.12567,-0.565433 0.56544,-1.068041 1.42406,-1.612532 3.16223,-2.01043 3.14129,-2.952818 -0.31412,-9.884612 l -2.49209,-5.005133 -1.78008,-1.17275 c -1.06804,-0.712027 -2.13609,-1.717242 -2.70151,-2.513037 -1.42406,-2.115139 -4.25123,-5.026074 -6.17789,-6.408244 -2.24079,-1.612532 -4.02086,-2.408327 -10.9317,-4.87948 -3.16226,-1.15181 -7.79043,-3.099413 -10.63853,-4.502525 C 113.20671,9.9831205 102.10748,6.3811003 87.469041,3.4492244 75.05045,0.95712937 67.092497,0.16133434 54.632027,0.14039235 39.721338,0.11945039 32.265995,1.271259 24.789708,4.7476261 18.842186,7.5119668 16.517628,9.606165 14.172127,14.359992 c -0.816737,1.67536 -2.157023,3.999918 -2.97376,5.172669 -0.816736,1.17275 -2.2617328,3.392599 -3.2250635,4.921363 -1.717242,2.7434 -1.738184,2.827168 -1.5706481,4.33499 0.2094196,1.90572 1.2984024,6.177882 2.450211,9.44483 1.8847766,5.40303 6.3035326,13.298154 7.8741806,14.031123 0.565435,0.272246 0.900506,0.795795 1.340287,2.157023 1.717241,5.130784 5.549626,10.764175 9.696136,14.198663 0.984273,0.816732 1.696302,1.591588 1.570649,1.717239 -0.125652,0.125649 -6.722373,0.251302 -14.638443,0.293186 L 0.16633815,70.74862 0.14640927,76.351947 C 0.12006286,81.523942 0.16194676,81.93974 0.58078621,82.25387 1.2928134,82.777418 208.79264,82.811203 209.50467,82.287655 Z M 68.160539,70.358837 c -0.08377,-0.08378 0.54449,-0.774857 1.424054,-1.486883 3.329774,-2.785283 6.47107,-6.722372 8.418673,-10.59664 l 0.879567,-1.759124 15.329527,0.06282 15.32951,0.06282 -0.0837,1.130864 c -0.10471,1.486882 0.58638,5.235495 1.31934,7.162157 0.33508,0.858619 1.15181,2.387385 1.82196,3.413542 0.69109,1.005214 1.17275,1.92666 1.06803,2.010433 -0.20942,0.209417 -45.318414,0.209417 -45.548775,0 z M 35.57483,69.290795 C 23.868261,63.406096 17.732263,49.73099 20.999211,36.788848 c 1.298405,-5.109841 3.769557,-9.423888 7.560055,-13.214385 3.790498,-3.790498 8.020777,-6.219767 13.277213,-7.601937 2.303616,-0.607318 3.329773,-0.712028 6.785202,-0.73297 2.743397,0 4.711943,0.146594 6.052228,0.439781 8.942224,2.031372 15.957786,7.476286 19.894876,15.47612 2.387384,4.837596 2.743398,6.554839 2.764338,12.753664 0,4.858537 -0.04188,5.340202 -0.77485,7.685704 -1.59159,5.130784 -3.62296,8.649038 -7.141214,12.292937 -2.157021,2.240793 -4.921364,4.293109 -7.622879,5.717163 l -1.549706,0.816736 -11.078303,0.08377 -11.078304,0.08377 z"
         fill="#000000" />
      <path
         fill="#000000"
         d="m 9.8371392,26.296918 c -0.083766,-0.146593 0.7120278,-1.591589 1.7800668,-3.225064 1.780067,-2.701515 2.031371,-2.97376 2.994702,-3.162237 0.858622,-0.167536 1.6963,-0.837679 4.565351,-3.685789 5.026077,-5.005131 9.842731,-8.0417177 16.041555,-10.1359157 3.120355,-1.0680405 8.649035,-2.0313707 11.099246,-1.9476028 0.565437,0.020942 0.08377,0.1465938 -1.06804,0.2722457 -2.889993,0.3350709 -6.15694,1.0261561 -8.669977,1.8219511 -3.204121,1.026157 -8.565268,3.7904977 -11.224899,5.8218697 -4.293108,3.225064 -8.963168,8.628093 -11.53903,13.319097 -0.418841,0.774852 -0.62826,0.85862 -1.738184,0.85862 -0.691083,0 -1.444997,0.06282 -1.675359,0.167536 -0.230359,0.08377 -0.4816642,0.04189 -0.5863737,-0.104711 z M 88.893097,45.186581 C 88.62085,44.914335 88.432373,43.762526 88.285776,41.605502 87.133967,23.302216 74.191827,8.5800075 56.035137,4.9570459 l -2.513036,-0.5026068 1.675357,-0.020942 c 2.387385,-0.041885 10.743231,0.7120266 13.737935,1.2355759 7.706648,1.3402862 18.387053,3.3926006 22.554507,4.355931 6.785201,1.570648 7.853241,1.968545 19.89487,7.601937 11.01548,5.151726 15.03632,7.287808 17.61219,9.340122 2.72246,2.177965 3.2879,2.97376 4.87949,6.722374 l 1.17274,2.785282 0.021,4.481582 0.021,4.481584 -22.88959,0.06282 C 92.662757,45.56353 89.249216,45.521652 88.914142,45.165636 Z M 35.57483,69.290795 C 23.868261,63.406096 17.732263,49.73099 20.999211,36.788848 c 1.298405,-5.109841 3.769557,-9.423888 7.560055,-13.214385 3.790498,-3.790498 8.020777,-6.219767 13.277213,-7.601937 2.303616,-0.607318 3.329773,-0.712028 6.785202,-0.73297 2.743397,0 4.711943,0.146594 6.052228,0.439781 8.942224,2.031372 15.957786,7.476286 19.894876,15.47612 2.387384,4.837596 2.743398,6.554839 2.764338,12.753664 0,4.858537 -0.04188,5.340202 -0.77485,7.685704 -1.59159,5.130784 -3.62296,8.649038 -7.141214,12.292937 -2.157021,2.240793 -4.921364,4.293109 -7.622879,5.717163 l -1.549706,0.816736 -11.078303,0.08377 -11.078304,0.08377 z"
         stroke="#000000"
         stroke-width="0.280227"
         id="path941"
         style="display:inline;fill:#fafafa;fill-opacity:1;stroke:#fafafa;stroke-opacity:1"
         sodipodi:nodetypes="ccccccccccscccccccccccccccccccccscccccccccccc" />
    </g>
    <g
       style="display:inline"
       inkscape:label="Wheel"
       id="g955"
       inkscape:groupmode="layer">
      <path
         style="display:inline;fill:#3e3e3e;fill-opacity:1;stroke:#3e3e3e;stroke-opacity:1"
         id="path951"
         stroke-width="0.280227"
         stroke="#000000"
         d="m 47.903555,47.971863 c -2.869051,-1.026157 -3.832383,-4.586292 -1.884779,-6.910851 1.424057,-1.696301 3.602022,-2.094199 5.528684,-1.026157 1.465936,0.816737 2.219847,2.177965 2.198907,3.874266 -0.04189,3.09941 -2.931879,5.109841 -5.82187,4.062742 z m 6.156939,19.350384 c 1.193695,-0.230362 2.324558,-0.565433 2.554922,-0.732967 0.544493,-0.439785 0.481663,-1.821951 -0.33507,-7.685706 -0.376957,-2.764343 -0.732968,-5.361146 -0.753913,-5.738101 -0.125649,-1.570648 0.858619,-0.795794 4.942306,3.769554 2.554919,2.869053 4.334987,4.628177 4.649115,4.628177 0.544495,0 2.596811,-2.115137 3.958036,-4.104625 2.031372,-2.931878 4.12557,-8.418675 3.476367,-9.046934 -0.146592,-0.146595 -2.785283,-0.774855 -5.884697,-1.424056 -7.015562,-1.444996 -6.575775,-1.319344 -6.575775,-2.13608 0,-0.544492 0.14659,-0.691086 0.774852,-0.691086 0.418841,0 3.225062,-1.06804 6.240706,-2.345501 4.858543,-2.073255 5.465857,-2.408328 5.549623,-3.015643 0.125652,-0.984274 -1.40311,-5.026075 -2.764341,-7.30875 -1.151808,-1.947603 -4.293104,-5.549624 -4.816654,-5.549624 -0.460719,0 -9.675187,6.99462 -10.240623,7.748532 -0.544491,0.75391 -1.465936,0.670142 -1.465936,-0.146594 0,-0.251305 0.837678,-2.994703 1.863835,-6.094116 1.026155,-3.099412 1.80101,-5.821869 1.696299,-6.073172 -0.272246,-0.73297 -3.853324,-1.403112 -7.497227,-1.403112 -3.643904,0 -7.141214,0.649201 -7.518169,1.424053 -0.167537,0.314131 0.376955,2.345501 1.717242,6.345419 1.842893,5.570565 1.92666,5.884696 1.424054,6.240709 -0.439779,0.335072 -0.586374,0.293188 -1.068041,-0.293187 -0.523549,-0.628261 -7.706647,-6.198826 -9.444831,-7.30875 -1.005212,-0.649201 -1.507822,-0.356013 -3.413541,2.010429 -2.42927,3.015645 -3.916151,5.842811 -4.816657,9.088818 -0.272244,1.005214 -0.272244,1.424054 -0.04188,1.738184 0.376955,0.523549 10.010264,4.649118 11.392434,4.900423 1.214635,0.209419 1.570652,1.319343 0.50261,1.570646 -0.356016,0.08377 -3.099414,0.670144 -6.115059,1.277461 -3.539195,0.732969 -5.570565,1.277461 -5.800927,1.570647 -0.41884,0.544493 0.10471,2.492096 1.465939,5.403031 1.654415,3.539193 5.067957,7.769475 6.115054,7.539112 0.251305,-0.06282 2.240793,-2.115139 4.439701,-4.565351 2.198908,-2.450212 4.125569,-4.502526 4.272162,-4.544408 0.146595,-0.04189 0.460723,0.02094 0.670143,0.167534 0.314131,0.20942 0.335074,0.397898 0.06282,1.047099 -0.418839,1.026157 -1.759123,11.99975 -1.549704,12.565183 0.146591,0.397897 2.010428,1.06804 3.748612,1.361233 1.696301,0.293184 6.575783,0.167533 8.56527,-0.209424 z"
         fill="#000000" />
      <path
         fill="#000000"
         d="m 47.903555,47.971863 c -2.869051,-1.026157 -3.832383,-4.586292 -1.884779,-6.910851 1.424057,-1.696301 3.602022,-2.094199 5.528684,-1.026157 1.465936,0.816737 2.219847,2.177965 2.198907,3.874266 -0.04189,3.09941 -2.931879,5.109841 -5.82187,4.062742 z m 6.156939,19.350384 c 1.193695,-0.230362 2.324558,-0.565433 2.554922,-0.732967 0.544493,-0.439785 0.481663,-1.821951 -0.33507,-7.685706 -0.376957,-2.764343 -0.732968,-5.361146 -0.753913,-5.738101 -0.125649,-1.570648 0.858619,-0.795794 4.942306,3.769554 2.554919,2.869053 4.334987,4.628177 4.649115,4.628177 0.544495,0 2.596811,-2.115137 3.958036,-4.104625 2.031372,-2.931878 4.12557,-8.418675 3.476367,-9.046934 -0.146592,-0.146595 -2.785283,-0.774855 -5.884697,-1.424056 -7.015562,-1.444996 -6.575775,-1.319344 -6.575775,-2.13608 0,-0.544492 0.14659,-0.691086 0.774852,-0.691086 0.418841,0 3.225062,-1.06804 6.240706,-2.345501 4.858543,-2.073255 5.465857,-2.408328 5.549623,-3.015643 0.125652,-0.984274 -1.40311,-5.026075 -2.764341,-7.30875 -1.151808,-1.947603 -4.293104,-5.549624 -4.816654,-5.549624 -0.460719,0 -9.675187,6.99462 -10.240623,7.748532 -0.544491,0.75391 -1.465936,0.670142 -1.465936,-0.146594 0,-0.251305 0.837678,-2.994703 1.863835,-6.094116 1.026155,-3.099412 1.80101,-5.821869 1.696299,-6.073172 -0.272246,-0.73297 -3.853324,-1.403112 -7.497227,-1.403112 -3.643904,0 -7.141214,0.649201 -7.518169,1.424053 -0.167537,0.314131 0.376955,2.345501 1.717242,6.345419 1.842893,5.570565 1.92666,5.884696 1.424054,6.240709 -0.439779,0.335072 -0.586374,0.293188 -1.068041,-0.293187 -0.523549,-0.628261 -7.706647,-6.198826 -9.444831,-7.30875 -1.005212,-0.649201 -1.507822,-0.356013 -3.413541,2.010429 -2.42927,3.015645 -3.916151,5.842811 -4.816657,9.088818 -0.272244,1.005214 -0.272244,1.424054 -0.04188,1.738184 0.376955,0.523549 10.010264,4.649118 11.392434,4.900423 1.214635,0.209419 1.570652,1.319343 0.50261,1.570646 -0.356016,0.08377 -3.099414,0.670144 -6.115059,1.277461 -3.539195,0.732969 -5.570565,1.277461 -5.800927,1.570647 -0.41884,0.544493 0.10471,2.492096 1.465939,5.403031 1.654415,3.539193 5.067957,7.769475 6.115054,7.539112 0.251305,-0.06282 2.240793,-2.115139 4.439701,-4.565351 2.198908,-2.450212 4.125569,-4.502526 4.272162,-4.544408 0.146595,-0.04189 0.460723,0.02094 0.670143,0.167534 0.314131,0.20942 0.335074,0.397898 0.06282,1.047099 -0.418839,1.026157 -1.759123,11.99975 -1.549704,12.565183 0.146591,0.397897 2.010428,1.06804 3.748612,1.361233 1.696301,0.293184 6.575783,0.167533 8.56527,-0.209424 z"
         stroke="#000000"
         stroke-width="0.280227"
         id="path953"
         style="display:inline;fill:#006249;fill-opacity:1;stroke:#006249;stroke-opacity:1" />
    </g>
  </g>
</svg>
