<svg id="OnDockStationCharging" version="1.1" viewBox="0 0 790 300" height="300" width="790" xmlns:svg="http://www.w3.org/2000/svg" xmlns="http://www.w3.org/2000/svg">
  <g id="OnDockStationCharging" style="display:inline">
    <rect id="DockLevel" x="620" y="220" width="70" height="30" fill="#006249">
      <animate repeatCount="indefinite" attributeName="height" from="30px" to="120px" begin="0s" dur="2s"/>
      <animateTransform repeatCount="indefinite" attributeName="transform" attributeType="XML" type="translate" from="0,0" to="0,-90" begin="0s" dur="2s"/>
    </rect>
    <path id="Dock" fill="#000" d="m 613,120 v 40 h -23 v 29 h 23 v 81 h 83 V 120 Z m 23.5,17.5 h 36 c 1.1,0 1.99,0.89 1.99,2 v 3 2 c 4.66,0 3.33,0 8,0 1.1,0 2,0.89 2,2 V 244.5 c 0,1.1 -0.89,2 -2,2 h -56 c -1.1,0 -2,-0.89 -2,-2 v -97.99 c 0,-1.1 0.89,-2 2,-2 4.66,0 3.33,0 8,0 v -2 V 139.5 c 0,-1.1 0.89,-2 2,-2 z"/>
    <path id="Mower" fill="#006249" d="M 38.2,99.9 C 37.9,99.3 40.8,93.9 44.8,87.8 51.5,77.6 52.4,76.6 56.1,75.9 c 3.2,-0.6 6.3,-3.1 17.1,-13.8 18.8,-18.7 36.8,-30.1 60.1,-37.9 11.6,-4 32.4,-7.6 41.5,-7.2 2.1,0 0.3,0.5 -4,1 -10.8,1.2 -23,3.8 -32.4,6.8 -12,3.8 -32,14.2 -42,21.8 -16,12 -33.5,32.3 -43.2,49.9 -1.5,2.9 -2.3,3.2 -6.5,3.2 -2.5,0 -5.4,0.2 -6.2,0.6 -0.8,0.3 -1.8,0.1 -2.1,-0.3 z M 334.4,170.6 c -1,-1 -1.7,-5.3 -2.2,-13.4 C 327.8,88.6 279.3,33.5 211.3,19.9 l -9.4,-1.8 6.2,0 c 8.9,-0.1 40.2,2.6 51.4,4.6 28.8,5 68.9,12.7 84.5,16.3 25.4,5.8 29.4,7.3 74.5,28.4 41.2,19.3 56.3,27.3 66,35 10.2,8.1 12.3,11.1 18.2,25.1 l 4.3,10.4 0,16.7 0,16.7 -85.7,0.2 c -73.2,0.2 -86,0 -87.2,-1.2 z m 456,139 c 1.5,0 1.5,-3.7 1.6,-22.5 l 0,-21 c -50.9,-1.3 -90.6,-1.3 -141.6,-1.7 l -119.4,0.7 c -0.3,-0.3 1,-2.8 3.1,-5.4 7.6,-9.8 11.6,-21.5 12.7,-36.4 l 0.7,-9.4 11.5,-0.5 c 9.9,-0.4 12.3,-0.9 17.1,-3.5 6.9,-3.6 15.3,-11.9 16.3,-16 0.4,-2.1 2.1,-4 5.3,-6 11.8,-7.5 11.7,-11 -1.1,-37 l -9.3,-18.7 -6.6,-4.3 c -4,-2.6 -8,-6.4 -10.1,-9.4 C 565.2,110.1 554.6,99.1 547.4,94 539,87.9 532.3,84.9 506.4,75.7 494.5,71.4 477.2,64.1 466.5,58.8 425.6,38.7 384,25.2 329.1,14.2 282.6,4.9 252.7,1.9 206,1.8 150.2,1.7 122.2,6.1 94.2,19.1 71.9,29.5 63.2,37.3 54.4,55.1 51.4,61.4 46.3,70.1 43.3,74.5 40.2,78.9 34.8,87.2 31.2,92.9 24.7,103.2 24.7,103.5 25.3,109.2 c 0.7,7.1 4.8,23.1 9.1,35.3 7,20.2 23.6,49.8 29.5,52.5 2.1,1 3.3,2.9 5,8 6.4,19.2 20.7,40.3 36.3,53.2 3.6,3 6.3,5.9 5.8,6.4 -0.4,0.4 -25.1,0.9 -54.8,1 l -58.4,0.4 0,20.9 c 0,19.3 0,20.9 1.6,22.1 2.6,1.9 788.3,2 790.9,0.1 z M 256.7,265 c -0.3,-0.3 2,-2.9 5.3,-5.5 12.4,-10.4 24.2,-25.1 31.5,-39.7 l 3.2,-6.5 57.4,0.2 57.4,0.2 -0.3,4.2 c -0.3,5.5 2.1,19.6 4.9,26.8 1.2,3.2 4.3,8.9 6.8,12.7 2.5,3.7 4.3,7.2 4,7.5 -0.7,0.7 -169.8,0.7 -170.7,0 z M 134.6,261 C 90.7,238.9 67.8,187.7 80,139.2 84.9,120 94.1,103.9 108.3,89.6 c 14.2,-14.2 30,-23.3 49.7,-28.4 8.6,-2.2 12.4,-2.6 25.4,-2.7 10.2,0 17.6,0.5 22.6,1.6 33.5,7.6 59.8,28 74.5,57.9 8.9,18.1 10.2,24.5 10.3,47.7 0,18.2 -0.1,20 -2.9,28.8 -5.9,19.2 -13.5,32.4 -26.7,46 -8,8.3 -18.4,16 -28.5,21.4 l -5.8,3 -41.5,0.3 -41.5,0.3 z"/>
    <path id="Wheel" fill="#006249" d="m 180.87,181.13 c -10.75,-3.84 -14.36,-17.18 -7.06,-25.89 5.33,-6.35 13.49,-7.84 20.71,-3.84 5.49,3.06 8.31,8.16 8.24,14.51 -0.15,11.61 -10.98,19.14 -21.81,15.22 z m 23.07,72.51 c 4.47,-0.86 8.71,-2.11 9.57,-2.74 2.04,-1.64 1.8,-6.82 -1.25,-28.8 -1.41,-10.35 -2.74,-20.09 -2.82,-21.5 -0.47,-5.88 3.21,-2.98 18.52,14.12 9.57,10.75 16.24,17.34 17.42,17.34 2.04,0 9.73,-7.92 14.83,-15.38 7.61,-10.98 15.46,-31.55 13.02,-33.9 -0.54,-0.54 -10.43,-2.9 -22.05,-5.33 -26.29,-5.41 -24.64,-4.94 -24.64,-8 0,-2.04 0.54,-2.58 2.9,-2.58 1.56,0 12.08,-4 23.38,-8.79 18.2,-7.76 20.48,-9.02 20.79,-11.3 0.47,-3.68 -5.25,-18.83 -10.35,-27.39 -4.31,-7.29 -16.08,-20.79 -18.05,-20.79 -1.72,0 -36.25,26.21 -38.37,29.03 -2.04,2.82 -5.49,2.51 -5.49,-0.54 0,-0.94 3.13,-11.22 6.98,-22.83 3.84,-11.61 6.74,-21.81 6.35,-22.76 -1.02,-2.74 -14.44,-5.25 -28.09,-5.25 -13.65,0 -26.76,2.43 -28.17,5.33 -0.62,1.17 1.41,8.79 6.43,23.78 6.9,20.87 7.22,22.05 5.33,23.38 -1.64,1.25 -2.19,1.09 -4,-1.09 -1.96,-2.35 -28.88,-23.23 -35.39,-27.39 -3.76,-2.43 -5.65,-1.33 -12.79,7.53 -9.1,11.3 -14.67,21.89 -18.05,34.06 -1.02,3.76 -1.02,5.33 -0.15,6.51 1.41,1.96 37.51,17.42 42.69,18.36 4.55,0.78 5.88,4.94 1.88,5.88 -1.33,0.31 -11.61,2.51 -22.91,4.78 -13.26,2.74 -20.87,4.78 -21.73,5.88 -1.56,2.04 0.39,9.33 5.49,20.24 6.2,13.26 18.99,29.11 22.91,28.25 0.94,-0.23 8.39,-7.92 16.63,-17.1 8.24,-9.18 15.46,-16.87 16.01,-17.03 0.54,-0.15 1.72,0.07 2.51,0.62 1.17,0.78 1.25,1.49 0.23,3.92 -1.56,3.84 -6.59,44.97 -5.8,47.08 0.54,1.49 7.53,4 14.04,5.1 6.35,1.09 24.64,0.62 32.09,-0.78 z"/>
  </g>
</svg>
